<?xml version="1.0" encoding="utf-8" standalone="no"?>
<!DOCTYPE svg PUBLIC "-//W3C//DTD SVG 1.1//EN"
  "http://www.w3.org/Graphics/SVG/1.1/DTD/svg11.dtd">
<!-- Created with matplotlib (https://matplotlib.org/) -->
<svg height="288pt" version="1.1" viewBox="0 0 432 288" width="432pt" xmlns="http://www.w3.org/2000/svg" xmlns:xlink="http://www.w3.org/1999/xlink">
 <defs>
  <style type="text/css">
*{stroke-linecap:butt;stroke-linejoin:round;}
  </style>
 </defs>
 <g id="figure_1">
  <g id="patch_1">
   <path d="M 0 288 
L 432 288 
L 432 0 
L 0 0 
z
" style="fill:#ffffff;"/>
  </g>
  <g id="axes_1">
   <g id="patch_2">
    <path d="M 54 252 
L 388.8 252 
L 388.8 34.56 
L 54 34.56 
z
" style="fill:#ffffff;"/>
   </g>
   <g id="matplotlib.axis_1">
    <g id="xtick_1">
     <g id="line2d_1">
      <defs>
       <path d="M 0 0 
L 0 6 
" id="ma70be130c4" style="stroke:#262626;stroke-width:1.25;"/>
      </defs>
      <g>
       <use style="fill:#262626;stroke:#262626;stroke-width:1.25;" x="92.087981" xlink:href="#ma70be130c4" y="252"/>
      </g>
     </g>
     <g id="text_1">
      <!-- 2006 -->
      <defs>
       <path d="M 12.796875 55.515625 
L 7.328125 55.515625 
L 7.328125 68.5 
Q 12.546875 71.296875 17.84375 72.75 
Q 23.140625 74.21875 28.21875 74.21875 
Q 39.59375 74.21875 46.1875 68.703125 
Q 52.78125 63.1875 52.78125 53.71875 
Q 52.78125 43.015625 37.84375 28.125 
Q 36.671875 27 36.078125 26.421875 
L 17.671875 8.015625 
L 48.09375 8.015625 
L 48.09375 17 
L 53.8125 17 
L 53.8125 0 
L 6.78125 0 
L 6.78125 5.328125 
L 28.90625 27.390625 
Q 36.234375 34.71875 39.359375 40.84375 
Q 42.484375 46.96875 42.484375 53.71875 
Q 42.484375 61.078125 38.640625 65.234375 
Q 34.8125 69.390625 28.078125 69.390625 
Q 21.09375 69.390625 17.28125 65.921875 
Q 13.484375 62.453125 12.796875 55.515625 
z
" id="DejaVuSerif-50"/>
       <path d="M 31.78125 3.421875 
Q 39.265625 3.421875 42.96875 11.625 
Q 46.6875 19.828125 46.6875 36.375 
Q 46.6875 52.984375 42.96875 61.1875 
Q 39.265625 69.390625 31.78125 69.390625 
Q 24.3125 69.390625 20.59375 61.1875 
Q 16.890625 52.984375 16.890625 36.375 
Q 16.890625 19.828125 20.59375 11.625 
Q 24.3125 3.421875 31.78125 3.421875 
z
M 31.78125 -1.421875 
Q 19.921875 -1.421875 13.25 8.53125 
Q 6.59375 18.5 6.59375 36.375 
Q 6.59375 54.296875 13.25 64.25 
Q 19.921875 74.21875 31.78125 74.21875 
Q 43.703125 74.21875 50.34375 64.25 
Q 56.984375 54.296875 56.984375 36.375 
Q 56.984375 18.5 50.34375 8.53125 
Q 43.703125 -1.421875 31.78125 -1.421875 
z
" id="DejaVuSerif-48"/>
       <path d="M 32.71875 3.421875 
Q 39.59375 3.421875 43.296875 8.46875 
Q 47.015625 13.53125 47.015625 23 
Q 47.015625 32.46875 43.296875 37.515625 
Q 39.59375 42.578125 32.71875 42.578125 
Q 25.734375 42.578125 22.0625 37.6875 
Q 18.40625 32.8125 18.40625 23.578125 
Q 18.40625 13.875 22.109375 8.640625 
Q 25.828125 3.421875 32.71875 3.421875 
z
M 16.796875 40.140625 
Q 20.125 43.796875 24.3125 45.59375 
Q 28.515625 47.40625 33.796875 47.40625 
Q 44.671875 47.40625 51 40.859375 
Q 57.328125 34.328125 57.328125 23 
Q 57.328125 11.921875 50.515625 5.25 
Q 43.703125 -1.421875 32.328125 -1.421875 
Q 19.96875 -1.421875 13.328125 7.78125 
Q 6.6875 17 6.6875 34.078125 
Q 6.6875 53.21875 14.546875 63.71875 
Q 22.40625 74.21875 36.71875 74.21875 
Q 40.578125 74.21875 44.828125 73.484375 
Q 49.078125 72.75 53.515625 71.296875 
L 53.515625 59.28125 
L 48 59.28125 
Q 47.40625 64.203125 44.234375 66.796875 
Q 41.0625 69.390625 35.6875 69.390625 
Q 26.21875 69.390625 21.578125 62.203125 
Q 16.9375 55.03125 16.796875 40.140625 
z
" id="DejaVuSerif-54"/>
      </defs>
      <g style="fill:#262626;" transform="translate(78.090481 269.858281)scale(0.11 -0.11)">
       <use xlink:href="#DejaVuSerif-50"/>
       <use x="63.623047" xlink:href="#DejaVuSerif-48"/>
       <use x="127.246094" xlink:href="#DejaVuSerif-48"/>
       <use x="190.869141" xlink:href="#DejaVuSerif-54"/>
      </g>
     </g>
    </g>
    <g id="xtick_2">
     <g id="line2d_2">
      <g>
       <use style="fill:#262626;stroke:#262626;stroke-width:1.25;" x="138.079588" xlink:href="#ma70be130c4" y="252"/>
      </g>
     </g>
     <g id="text_2">
      <!-- 2008 -->
      <defs>
       <path d="M 46.578125 19.921875 
Q 46.578125 27.734375 42.6875 32.046875 
Q 38.8125 36.375 31.78125 36.375 
Q 24.75 36.375 20.875 32.046875 
Q 17 27.734375 17 19.921875 
Q 17 12.0625 20.875 7.734375 
Q 24.75 3.421875 31.78125 3.421875 
Q 38.8125 3.421875 42.6875 7.734375 
Q 46.578125 12.0625 46.578125 19.921875 
z
M 44.578125 55.328125 
Q 44.578125 61.96875 41.203125 65.671875 
Q 37.84375 69.390625 31.78125 69.390625 
Q 25.78125 69.390625 22.390625 65.671875 
Q 19 61.96875 19 55.328125 
Q 19 48.640625 22.390625 44.921875 
Q 25.78125 41.21875 31.78125 41.21875 
Q 37.84375 41.21875 41.203125 44.921875 
Q 44.578125 48.640625 44.578125 55.328125 
z
M 39.3125 38.8125 
Q 47.609375 37.703125 52.25 32.6875 
Q 56.890625 27.6875 56.890625 19.921875 
Q 56.890625 9.671875 50.390625 4.125 
Q 43.890625 -1.421875 31.78125 -1.421875 
Q 19.734375 -1.421875 13.203125 4.125 
Q 6.6875 9.671875 6.6875 19.921875 
Q 6.6875 27.6875 11.328125 32.6875 
Q 15.96875 37.703125 24.3125 38.8125 
Q 16.9375 40.140625 13 44.40625 
Q 9.078125 48.6875 9.078125 55.328125 
Q 9.078125 64.109375 15.125 69.15625 
Q 21.1875 74.21875 31.78125 74.21875 
Q 42.390625 74.21875 48.4375 69.15625 
Q 54.5 64.109375 54.5 55.328125 
Q 54.5 48.6875 50.5625 44.40625 
Q 46.625 40.140625 39.3125 38.8125 
z
" id="DejaVuSerif-56"/>
      </defs>
      <g style="fill:#262626;" transform="translate(124.082088 269.858281)scale(0.11 -0.11)">
       <use xlink:href="#DejaVuSerif-50"/>
       <use x="63.623047" xlink:href="#DejaVuSerif-48"/>
       <use x="127.246094" xlink:href="#DejaVuSerif-48"/>
       <use x="190.869141" xlink:href="#DejaVuSerif-56"/>
      </g>
     </g>
    </g>
    <g id="xtick_3">
     <g id="line2d_3">
      <g>
       <use style="fill:#262626;stroke:#262626;stroke-width:1.25;" x="184.134198" xlink:href="#ma70be130c4" y="252"/>
      </g>
     </g>
     <g id="text_3">
      <!-- 2010 -->
      <defs>
       <path d="M 14.203125 0 
L 14.203125 5.171875 
L 26.90625 5.171875 
L 26.90625 65.828125 
L 12.203125 56.296875 
L 12.203125 62.703125 
L 29.984375 74.21875 
L 36.71875 74.21875 
L 36.71875 5.171875 
L 49.421875 5.171875 
L 49.421875 0 
z
" id="DejaVuSerif-49"/>
      </defs>
      <g style="fill:#262626;" transform="translate(170.136698 269.858281)scale(0.11 -0.11)">
       <use xlink:href="#DejaVuSerif-50"/>
       <use x="63.623047" xlink:href="#DejaVuSerif-48"/>
       <use x="127.246094" xlink:href="#DejaVuSerif-49"/>
       <use x="190.869141" xlink:href="#DejaVuSerif-48"/>
      </g>
     </g>
    </g>
    <g id="xtick_4">
     <g id="line2d_4">
      <g>
       <use style="fill:#262626;stroke:#262626;stroke-width:1.25;" x="230.125805" xlink:href="#ma70be130c4" y="252"/>
      </g>
     </g>
     <g id="text_4">
      <!-- 2012 -->
      <g style="fill:#262626;" transform="translate(216.128305 269.858281)scale(0.11 -0.11)">
       <use xlink:href="#DejaVuSerif-50"/>
       <use x="63.623047" xlink:href="#DejaVuSerif-48"/>
       <use x="127.246094" xlink:href="#DejaVuSerif-49"/>
       <use x="190.869141" xlink:href="#DejaVuSerif-50"/>
      </g>
     </g>
    </g>
    <g id="xtick_5">
     <g id="line2d_5">
      <g>
       <use style="fill:#262626;stroke:#262626;stroke-width:1.25;" x="276.180414" xlink:href="#ma70be130c4" y="252"/>
      </g>
     </g>
     <g id="text_5">
      <!-- 2014 -->
      <defs>
       <path d="M 34.90625 24.703125 
L 34.90625 63.484375 
L 10.015625 24.703125 
z
M 56.390625 0 
L 23.1875 0 
L 23.1875 5.171875 
L 34.90625 5.171875 
L 34.90625 19.484375 
L 3.078125 19.484375 
L 3.078125 24.8125 
L 35.015625 74.21875 
L 44.671875 74.21875 
L 44.671875 24.703125 
L 58.59375 24.703125 
L 58.59375 19.484375 
L 44.671875 19.484375 
L 44.671875 5.171875 
L 56.390625 5.171875 
z
" id="DejaVuSerif-52"/>
      </defs>
      <g style="fill:#262626;" transform="translate(262.182914 269.858281)scale(0.11 -0.11)">
       <use xlink:href="#DejaVuSerif-50"/>
       <use x="63.623047" xlink:href="#DejaVuSerif-48"/>
       <use x="127.246094" xlink:href="#DejaVuSerif-49"/>
       <use x="190.869141" xlink:href="#DejaVuSerif-52"/>
      </g>
     </g>
    </g>
    <g id="xtick_6">
     <g id="line2d_6">
      <g>
       <use style="fill:#262626;stroke:#262626;stroke-width:1.25;" x="322.172022" xlink:href="#ma70be130c4" y="252"/>
      </g>
     </g>
     <g id="text_6">
      <!-- 2016 -->
      <g style="fill:#262626;" transform="translate(308.174522 269.858281)scale(0.11 -0.11)">
       <use xlink:href="#DejaVuSerif-50"/>
       <use x="63.623047" xlink:href="#DejaVuSerif-48"/>
       <use x="127.246094" xlink:href="#DejaVuSerif-49"/>
       <use x="190.869141" xlink:href="#DejaVuSerif-54"/>
      </g>
     </g>
    </g>
    <g id="xtick_7">
     <g id="line2d_7">
      <g>
       <use style="fill:#262626;stroke:#262626;stroke-width:1.25;" x="368.226631" xlink:href="#ma70be130c4" y="252"/>
      </g>
     </g>
     <g id="text_7">
      <!-- 2018 -->
      <g style="fill:#262626;" transform="translate(354.229131 269.858281)scale(0.11 -0.11)">
       <use xlink:href="#DejaVuSerif-50"/>
       <use x="63.623047" xlink:href="#DejaVuSerif-48"/>
       <use x="127.246094" xlink:href="#DejaVuSerif-49"/>
       <use x="190.869141" xlink:href="#DejaVuSerif-56"/>
      </g>
     </g>
    </g>
    <g id="text_8">
     <!-- date -->
     <defs>
      <path d="M 52.484375 5.171875 
L 61.078125 5.171875 
L 61.078125 0 
L 43.5 0 
L 43.5 8.109375 
Q 40.875 3.21875 36.796875 0.890625 
Q 32.71875 -1.421875 26.703125 -1.421875 
Q 17.140625 -1.421875 11.0625 6.171875 
Q 4.984375 13.765625 4.984375 25.984375 
Q 4.984375 38.1875 11.03125 45.75 
Q 17.09375 53.328125 26.703125 53.328125 
Q 32.71875 53.328125 36.796875 51 
Q 40.875 48.6875 43.5 43.796875 
L 43.5 70.796875 
L 35.015625 70.796875 
L 35.015625 75.984375 
L 52.484375 75.984375 
z
M 43.5 23.390625 
L 43.5 28.515625 
Q 43.5 37.84375 39.90625 42.765625 
Q 36.328125 47.703125 29.5 47.703125 
Q 22.5625 47.703125 19.015625 42.234375 
Q 15.484375 36.765625 15.484375 25.984375 
Q 15.484375 15.234375 19.015625 9.71875 
Q 22.5625 4.203125 29.5 4.203125 
Q 36.328125 4.203125 39.90625 9.109375 
Q 43.5 14.015625 43.5 23.390625 
z
" id="DejaVuSerif-100"/>
      <path d="M 39.796875 16.3125 
L 39.796875 27.296875 
L 28.21875 27.296875 
Q 21.53125 27.296875 18.25 24.40625 
Q 14.984375 21.53125 14.984375 15.578125 
Q 14.984375 10.15625 18.296875 6.984375 
Q 21.625 3.8125 27.296875 3.8125 
Q 32.90625 3.8125 36.34375 7.28125 
Q 39.796875 10.75 39.796875 16.3125 
z
M 48.78125 32.421875 
L 48.78125 5.171875 
L 56.78125 5.171875 
L 56.78125 0 
L 39.796875 0 
L 39.796875 5.609375 
Q 36.8125 2 32.90625 0.28125 
Q 29 -1.421875 23.78125 -1.421875 
Q 15.140625 -1.421875 10.0625 3.171875 
Q 4.984375 7.765625 4.984375 15.578125 
Q 4.984375 23.640625 10.796875 28.078125 
Q 16.609375 32.515625 27.203125 32.515625 
L 39.796875 32.515625 
L 39.796875 36.078125 
Q 39.796875 42 36.203125 45.234375 
Q 32.625 48.484375 26.125 48.484375 
Q 20.75 48.484375 17.578125 46.046875 
Q 14.40625 43.609375 13.625 38.8125 
L 8.984375 38.8125 
L 8.984375 49.3125 
Q 13.671875 51.3125 18.09375 52.3125 
Q 22.515625 53.328125 26.703125 53.328125 
Q 37.5 53.328125 43.140625 47.96875 
Q 48.78125 42.625 48.78125 32.421875 
z
" id="DejaVuSerif-97"/>
      <path d="M 10.796875 46.6875 
L 2.875 46.6875 
L 2.875 51.90625 
L 10.796875 51.90625 
L 10.796875 68.015625 
L 19.828125 68.015625 
L 19.828125 51.90625 
L 36.71875 51.90625 
L 36.71875 46.6875 
L 19.828125 46.6875 
L 19.828125 13.71875 
Q 19.828125 7.125 21.09375 5.265625 
Q 22.359375 3.421875 25.78125 3.421875 
Q 29.296875 3.421875 30.90625 5.484375 
Q 32.515625 7.5625 32.625 12.203125 
L 39.40625 12.203125 
Q 39.015625 5.125 35.546875 1.84375 
Q 32.078125 -1.421875 25 -1.421875 
Q 17.234375 -1.421875 14.015625 2.015625 
Q 10.796875 5.46875 10.796875 13.71875 
z
" id="DejaVuSerif-116"/>
      <path d="M 54.203125 25 
L 15.484375 25 
L 15.484375 24.609375 
Q 15.484375 14.109375 19.4375 8.765625 
Q 23.390625 3.421875 31.109375 3.421875 
Q 37.015625 3.421875 40.796875 6.515625 
Q 44.578125 9.625 46.09375 15.71875 
L 53.328125 15.71875 
Q 51.171875 7.171875 45.375 2.875 
Q 39.59375 -1.421875 30.171875 -1.421875 
Q 18.796875 -1.421875 11.890625 6.078125 
Q 4.984375 13.578125 4.984375 25.984375 
Q 4.984375 38.28125 11.765625 45.796875 
Q 18.5625 53.328125 29.59375 53.328125 
Q 41.359375 53.328125 47.65625 46.0625 
Q 53.953125 38.8125 54.203125 25 
z
M 43.609375 30.171875 
Q 43.3125 39.265625 39.765625 43.875 
Q 36.234375 48.484375 29.59375 48.484375 
Q 23.390625 48.484375 19.828125 43.84375 
Q 16.265625 39.203125 15.484375 30.171875 
z
" id="DejaVuSerif-101"/>
     </defs>
     <g style="fill:#262626;" transform="translate(208.019063 285.264063)scale(0.12 -0.12)">
      <use xlink:href="#DejaVuSerif-100"/>
      <use x="64.013672" xlink:href="#DejaVuSerif-97"/>
      <use x="123.632812" xlink:href="#DejaVuSerif-116"/>
      <use x="163.818359" xlink:href="#DejaVuSerif-101"/>
     </g>
    </g>
   </g>
   <g id="matplotlib.axis_2">
    <g id="ytick_1">
     <g id="line2d_8">
      <defs>
       <path d="M 0 0 
L -6 0 
" id="m108c7b710f" style="stroke:#262626;stroke-width:1.25;"/>
      </defs>
      <g>
       <use style="fill:#262626;stroke:#262626;stroke-width:1.25;" x="54" xlink:href="#m108c7b710f" y="246.640234"/>
      </g>
     </g>
     <g id="text_9">
      <!-- 0 -->
      <g style="fill:#262626;" transform="translate(37.50125 250.819375)scale(0.11 -0.11)">
       <use xlink:href="#DejaVuSerif-48"/>
      </g>
     </g>
    </g>
    <g id="ytick_2">
     <g id="line2d_9">
      <g>
       <use style="fill:#262626;stroke:#262626;stroke-width:1.25;" x="54" xlink:href="#m108c7b710f" y="218.827772"/>
      </g>
     </g>
     <g id="text_10">
      <!-- 25 -->
      <defs>
       <path d="M 50.296875 72.90625 
L 50.296875 64.890625 
L 16.890625 64.890625 
L 16.890625 44 
Q 19.4375 45.75 22.828125 46.625 
Q 26.21875 47.515625 30.421875 47.515625 
Q 42.234375 47.515625 49.0625 40.96875 
Q 55.90625 34.421875 55.90625 23.09375 
Q 55.90625 11.53125 49 5.046875 
Q 42.09375 -1.421875 29.59375 -1.421875 
Q 24.5625 -1.421875 19.28125 -0.1875 
Q 14.015625 1.03125 8.5 3.515625 
L 8.5 17.671875 
L 14.015625 17.671875 
Q 14.453125 10.75 18.421875 7.078125 
Q 22.40625 3.421875 29.59375 3.421875 
Q 37.3125 3.421875 41.453125 8.5 
Q 45.609375 13.578125 45.609375 23.09375 
Q 45.609375 32.5625 41.484375 37.609375 
Q 37.359375 42.671875 29.59375 42.671875 
Q 25.203125 42.671875 21.84375 41.109375 
Q 18.5 39.546875 15.921875 36.28125 
L 11.71875 36.28125 
L 11.71875 72.90625 
z
" id="DejaVuSerif-53"/>
      </defs>
      <g style="fill:#262626;" transform="translate(30.5025 223.006913)scale(0.11 -0.11)">
       <use xlink:href="#DejaVuSerif-50"/>
       <use x="63.623047" xlink:href="#DejaVuSerif-53"/>
      </g>
     </g>
    </g>
    <g id="ytick_3">
     <g id="line2d_10">
      <g>
       <use style="fill:#262626;stroke:#262626;stroke-width:1.25;" x="54" xlink:href="#m108c7b710f" y="191.015311"/>
      </g>
     </g>
     <g id="text_11">
      <!-- 50 -->
      <g style="fill:#262626;" transform="translate(30.5025 195.194451)scale(0.11 -0.11)">
       <use xlink:href="#DejaVuSerif-53"/>
       <use x="63.623047" xlink:href="#DejaVuSerif-48"/>
      </g>
     </g>
    </g>
    <g id="ytick_4">
     <g id="line2d_11">
      <g>
       <use style="fill:#262626;stroke:#262626;stroke-width:1.25;" x="54" xlink:href="#m108c7b710f" y="163.202849"/>
      </g>
     </g>
     <g id="text_12">
      <!-- 75 -->
      <defs>
       <path d="M 56.390625 67.921875 
L 27.875 0 
L 20.609375 0 
L 47.796875 64.890625 
L 14.109375 64.890625 
L 14.109375 55.90625 
L 8.40625 55.90625 
L 8.40625 72.90625 
L 56.390625 72.90625 
z
" id="DejaVuSerif-55"/>
      </defs>
      <g style="fill:#262626;" transform="translate(30.5025 167.381989)scale(0.11 -0.11)">
       <use xlink:href="#DejaVuSerif-55"/>
       <use x="63.623047" xlink:href="#DejaVuSerif-53"/>
      </g>
     </g>
    </g>
    <g id="ytick_5">
     <g id="line2d_12">
      <g>
       <use style="fill:#262626;stroke:#262626;stroke-width:1.25;" x="54" xlink:href="#m108c7b710f" y="135.390387"/>
      </g>
     </g>
     <g id="text_13">
      <!-- 100 -->
      <g style="fill:#262626;" transform="translate(23.50375 139.569527)scale(0.11 -0.11)">
       <use xlink:href="#DejaVuSerif-49"/>
       <use x="63.623047" xlink:href="#DejaVuSerif-48"/>
       <use x="127.246094" xlink:href="#DejaVuSerif-48"/>
      </g>
     </g>
    </g>
    <g id="ytick_6">
     <g id="line2d_13">
      <g>
       <use style="fill:#262626;stroke:#262626;stroke-width:1.25;" x="54" xlink:href="#m108c7b710f" y="107.577925"/>
      </g>
     </g>
     <g id="text_14">
      <!-- 125 -->
      <g style="fill:#262626;" transform="translate(23.50375 111.757066)scale(0.11 -0.11)">
       <use xlink:href="#DejaVuSerif-49"/>
       <use x="63.623047" xlink:href="#DejaVuSerif-50"/>
       <use x="127.246094" xlink:href="#DejaVuSerif-53"/>
      </g>
     </g>
    </g>
    <g id="ytick_7">
     <g id="line2d_14">
      <g>
       <use style="fill:#262626;stroke:#262626;stroke-width:1.25;" x="54" xlink:href="#m108c7b710f" y="79.765463"/>
      </g>
     </g>
     <g id="text_15">
      <!-- 150 -->
      <g style="fill:#262626;" transform="translate(23.50375 83.944604)scale(0.11 -0.11)">
       <use xlink:href="#DejaVuSerif-49"/>
       <use x="63.623047" xlink:href="#DejaVuSerif-53"/>
       <use x="127.246094" xlink:href="#DejaVuSerif-48"/>
      </g>
     </g>
    </g>
    <g id="ytick_8">
     <g id="line2d_15">
      <g>
       <use style="fill:#262626;stroke:#262626;stroke-width:1.25;" x="54" xlink:href="#m108c7b710f" y="51.953001"/>
      </g>
     </g>
     <g id="text_16">
      <!-- 175 -->
      <g style="fill:#262626;" transform="translate(23.50375 56.132142)scale(0.11 -0.11)">
       <use xlink:href="#DejaVuSerif-49"/>
       <use x="63.623047" xlink:href="#DejaVuSerif-55"/>
       <use x="127.246094" xlink:href="#DejaVuSerif-53"/>
      </g>
     </g>
    </g>
    <g id="text_17">
     <!-- close -->
     <defs>
      <path d="M 51.421875 15.578125 
Q 49.515625 7.28125 44.09375 2.921875 
Q 38.671875 -1.421875 30.078125 -1.421875 
Q 18.75 -1.421875 11.859375 6.078125 
Q 4.984375 13.578125 4.984375 25.984375 
Q 4.984375 38.421875 11.859375 45.875 
Q 18.75 53.328125 30.078125 53.328125 
Q 35.015625 53.328125 39.890625 52.171875 
Q 44.78125 51.03125 49.703125 48.6875 
L 49.703125 35.40625 
L 44.484375 35.40625 
Q 43.453125 42.234375 40.015625 45.359375 
Q 36.578125 48.484375 30.171875 48.484375 
Q 22.90625 48.484375 19.1875 42.84375 
Q 15.484375 37.203125 15.484375 25.984375 
Q 15.484375 14.75 19.171875 9.078125 
Q 22.859375 3.421875 30.171875 3.421875 
Q 35.984375 3.421875 39.453125 6.4375 
Q 42.921875 9.46875 44.1875 15.578125 
z
" id="DejaVuSerif-99"/>
      <path d="M 20.515625 5.171875 
L 29 5.171875 
L 29 0 
L 2.875 0 
L 2.875 5.171875 
L 11.53125 5.171875 
L 11.53125 70.796875 
L 2.875 70.796875 
L 2.875 75.984375 
L 20.515625 75.984375 
z
" id="DejaVuSerif-108"/>
      <path d="M 30.078125 3.421875 
Q 37.3125 3.421875 40.984375 9.125 
Q 44.671875 14.84375 44.671875 25.984375 
Q 44.671875 37.109375 40.984375 42.796875 
Q 37.3125 48.484375 30.078125 48.484375 
Q 22.859375 48.484375 19.171875 42.796875 
Q 15.484375 37.109375 15.484375 25.984375 
Q 15.484375 14.84375 19.1875 9.125 
Q 22.90625 3.421875 30.078125 3.421875 
z
M 30.078125 -1.421875 
Q 18.75 -1.421875 11.859375 6.078125 
Q 4.984375 13.578125 4.984375 25.984375 
Q 4.984375 38.375 11.84375 45.84375 
Q 18.703125 53.328125 30.078125 53.328125 
Q 41.453125 53.328125 48.3125 45.84375 
Q 55.171875 38.375 55.171875 25.984375 
Q 55.171875 13.578125 48.3125 6.078125 
Q 41.453125 -1.421875 30.078125 -1.421875 
z
" id="DejaVuSerif-111"/>
      <path d="M 5.609375 2.875 
L 5.609375 14.984375 
L 10.796875 14.984375 
Q 10.984375 9.1875 14.421875 6.296875 
Q 17.875 3.421875 24.609375 3.421875 
Q 30.671875 3.421875 33.84375 5.6875 
Q 37.015625 7.953125 37.015625 12.3125 
Q 37.015625 15.71875 34.6875 17.8125 
Q 32.375 19.921875 24.90625 22.3125 
L 18.40625 24.515625 
Q 11.71875 26.65625 8.71875 29.875 
Q 5.71875 33.109375 5.71875 38.09375 
Q 5.71875 45.21875 10.9375 49.265625 
Q 16.15625 53.328125 25.390625 53.328125 
Q 29.5 53.328125 34.03125 52.25 
Q 38.578125 51.171875 43.40625 49.125 
L 43.40625 37.796875 
L 38.234375 37.796875 
Q 38.03125 42.828125 34.703125 45.65625 
Q 31.390625 48.484375 25.6875 48.484375 
Q 20.015625 48.484375 17.109375 46.484375 
Q 14.203125 44.484375 14.203125 40.484375 
Q 14.203125 37.203125 16.40625 35.21875 
Q 18.609375 33.25 25.203125 31.203125 
L 32.328125 29 
Q 39.703125 26.703125 42.9375 23.265625 
Q 46.1875 19.828125 46.1875 14.40625 
Q 46.1875 7.03125 40.546875 2.796875 
Q 34.90625 -1.421875 25 -1.421875 
Q 19.96875 -1.421875 15.1875 -0.34375 
Q 10.40625 0.734375 5.609375 2.875 
z
" id="DejaVuSerif-115"/>
     </defs>
     <g style="fill:#262626;" transform="translate(17.008125 158.80125)rotate(-90)scale(0.12 -0.12)">
      <use xlink:href="#DejaVuSerif-99"/>
      <use x="56.005859" xlink:href="#DejaVuSerif-108"/>
      <use x="87.988281" xlink:href="#DejaVuSerif-111"/>
      <use x="148.193359" xlink:href="#DejaVuSerif-115"/>
      <use x="199.511719" xlink:href="#DejaVuSerif-101"/>
     </g>
    </g>
   </g>
   <g id="line2d_16">
    <path clip-path="url(#p3aa1ca9336)" d="M 69.218182 242.116364 
L 69.407188 242.025104 
L 69.470191 241.690485 
L 69.659197 241.712214 
L 69.722199 242.025104 
L 69.785202 241.959919 
L 69.911206 241.620954 
L 70.730235 241.447126 
L 71.108248 240.947371 
L 71.17125 241.077742 
L 71.234252 241.003865 
L 71.423259 240.995174 
L 71.486261 240.856111 
L 71.612265 241.038631 
L 71.927276 240.321591 
L 71.990279 240.195565 
L 72.116283 240.434579 
L 72.368292 240.543221 
L 72.557299 240.278134 
L 72.809307 240.278134 
L 72.87231 240.330282 
L 72.935312 240.664901 
L 72.998314 240.521493 
L 73.187321 240.530184 
L 73.313325 241.012557 
L 73.376327 240.947371 
L 73.439329 240.882186 
L 73.691338 240.782235 
L 73.817343 240.599715 
L 74.069351 240.391122 
L 74.258358 240.56495 
L 74.636371 240.521493 
L 74.762376 240.795272 
L 75.014384 240.651864 
L 75.203391 240.386776 
L 75.392398 240.647518 
L 75.4554 240.543221 
L 75.833413 241.547077 
L 75.896415 241.338484 
L 75.959417 241.56446 
L 76.02242 241.329792 
L 76.085422 241.56446 
L 76.274428 241.351521 
L 76.463435 241.560114 
L 76.715444 241.429743 
L 76.778446 241.464509 
L 76.967453 241.316755 
L 77.219461 241.434089 
L 77.345466 241.760016 
L 77.408468 241.668757 
L 77.723479 241.516657 
L 77.849483 241.273298 
L 78.227497 240.817 
L 78.668512 240.916951 
L 78.731514 241.173347 
L 78.920521 241.216804 
L 78.983523 241.416706 
L 79.046525 241.360212 
L 79.109527 241.255916 
L 79.17253 241.521003 
L 79.424538 241.494929 
L 79.613545 241.164656 
L 79.865554 241.225496 
L 79.991558 241.082088 
L 80.054561 241.242879 
L 80.495576 241.421052 
L 80.747585 241.208113 
L 80.810587 241.295027 
L 81.251602 241.155965 
L 81.377607 240.699666 
L 81.566613 240.708358 
L 81.692618 240.404159 
L 81.75562 240.451962 
L 81.818622 240.347665 
L 82.196635 240.378085 
L 82.259638 240.543221 
L 82.88966 240.543221 
L 83.141668 240.047812 
L 83.330675 239.821836 
L 83.393677 240.026083 
L 83.456679 239.900058 
L 83.582684 240.086923 
L 84.275708 239.982626 
L 84.33871 239.934824 
L 84.401712 240.026083 
L 84.464715 240.030429 
L 85.094737 239.29166 
L 85.283743 239.508945 
L 85.346745 239.317735 
L 85.598754 239.035264 
L 85.724759 239.222129 
L 85.787761 239.035264 
L 86.03977 239.000499 
L 86.102772 239.335117 
L 86.165774 239.156944 
L 86.228776 238.974425 
L 86.417783 238.857091 
L 86.858798 239.439414 
L 86.9218 239.265586 
L 86.984803 239.600205 
L 87.110807 238.917931 
L 87.299814 239.000499 
L 87.362816 239.174327 
L 87.48882 238.613732 
L 87.551823 238.683263 
L 87.740829 238.522472 
L 87.803831 238.618077 
L 87.866834 238.487706 
L 87.992838 238.852745 
L 88.370851 237.796741 
L 88.433853 237.896692 
L 88.748864 238.044445 
L 88.874869 237.840198 
L 89.063875 237.853235 
L 89.126878 237.740247 
L 89.18988 237.357825 
L 89.252882 237.418665 
L 89.504891 237.349134 
L 89.7569 236.723353 
L 89.945906 236.679896 
L 90.071911 236.940638 
L 90.197915 236.254018 
L 90.386922 236.375698 
L 90.449924 236.054116 
L 90.512926 236.071499 
L 90.890939 235.923745 
L 91.079946 236.471303 
L 91.331955 236.332241 
L 91.457959 236.054116 
L 91.520961 236.149721 
L 91.77297 236.028042 
L 91.835972 236.123647 
L 91.898974 236.427846 
L 91.961977 236.358315 
L 92.276988 235.923745 
L 92.33999 236.001968 
L 92.402992 235.732534 
L 92.591999 235.7673 
L 92.781005 234.58527 
L 92.844007 234.402751 
L 93.096016 234.533122 
L 93.285023 235.758609 
L 93.474029 235.532632 
L 93.726038 236.340932 
L 94.041049 235.854214 
L 94.167054 236.367006 
L 94.35606 237.018861 
L 94.419062 236.975404 
L 94.482065 236.801576 
L 94.545067 237.357825 
L 94.608069 237.018861 
L 94.797076 237.392591 
L 94.986082 236.549526 
L 95.301093 236.76681 
L 95.427098 236.384389 
L 95.679107 236.488686 
L 95.742109 236.845033 
L 95.805111 236.758119 
L 95.868113 236.688588 
L 96.120122 237.279603 
L 96.183124 237.157923 
L 96.246126 237.253529 
L 96.372131 237.609876 
L 96.62414 237.018861 
L 96.687142 237.175306 
L 96.750144 237.444739 
L 96.813146 237.392591 
L 97.002153 237.488196 
L 97.191159 238.0401 
L 97.50617 238.244347 
L 97.632175 237.670715 
L 97.884184 237.679407 
L 97.947186 237.896692 
L 98.07319 236.45392 
L 98.136192 236.662514 
L 98.388201 236.923256 
L 98.514206 237.14054 
L 98.766214 237.375208 
L 98.955221 236.975404 
L 99.20723 237.236146 
L 99.270232 237.183997 
L 99.459239 236.5756 
L 99.648245 236.688588 
L 99.711247 236.401772 
L 99.77425 236.471303 
L 99.837252 236.471303 
L 99.900254 236.358315 
L 100.089261 236.358315 
L 100.341269 236.958021 
L 100.530276 236.94933 
L 100.719283 237.609876 
L 100.782285 237.418665 
L 101.097296 237.583801 
L 101.160298 237.444739 
L 101.2233 237.557727 
L 101.538311 238.096594 
L 101.601313 237.753284 
L 101.664316 237.822815 
L 101.979327 238.266076 
L 102.042329 237.953186 
L 102.105331 238.131359 
L 102.294338 238.492052 
L 102.483344 238.148742 
L 102.546347 238.409484 
L 102.798355 238.422521 
L 102.861358 238.366027 
L 102.92436 238.122668 
L 102.987362 238.23131 
L 103.176369 238.205236 
L 103.302373 238.631115 
L 103.365375 238.209582 
L 103.428377 238.452941 
L 103.617384 238.35299 
L 104.058399 238.778868 
L 104.121402 238.683263 
L 104.310408 239.395957 
L 104.625419 238.904893 
L 104.751424 237.957531 
L 105.003432 237.788049 
L 105.192439 237.26222 
L 105.570452 236.688588 
L 105.633454 236.871107 
L 105.822461 237.027552 
L 105.948465 237.549036 
L 106.011468 237.479505 
L 106.07447 237.540345 
L 106.263476 237.496888 
L 106.389481 236.923256 
L 106.452483 236.975404 
L 106.515485 236.931947 
L 106.704492 237.123158 
L 106.956501 236.810267 
L 107.208509 237.131849 
L 107.271512 237.071009 
L 107.649525 236.419155 
L 107.712527 236.627748 
L 107.775529 236.227944 
L 107.838531 236.271401 
L 108.09054 236.254018 
L 108.216545 236.036733 
L 108.531556 236.088882 
L 108.594558 235.880288 
L 108.65756 235.967202 
L 108.720562 236.20187 
L 108.972571 235.541324 
L 109.098575 235.628238 
L 109.161578 235.636929 
L 109.413586 236.054116 
L 109.476589 235.862905 
L 109.539591 235.941128 
L 109.602593 236.028042 
L 109.7916 235.967202 
L 109.917604 236.167104 
L 109.980606 235.880288 
L 110.043609 235.915054 
L 110.232615 235.862905 
L 110.295617 236.019351 
L 110.35862 235.984585 
L 110.484624 235.211051 
L 110.862637 234.889469 
L 110.925639 235.14152 
L 111.177648 235.045914 
L 111.366655 235.445718 
L 111.618664 235.132828 
L 111.744668 234.724333 
L 111.80767 234.759098 
L 112.059679 234.489665 
L 112.122681 234.620036 
L 112.248686 234.367986 
L 112.437692 234.281072 
L 112.689701 233.542303 
L 112.878708 233.837811 
L 113.004712 233.516229 
L 113.382725 233.594451 
L 113.50873 234.194158 
L 113.571732 234.02033 
L 113.760738 233.950799 
L 113.823741 234.324529 
L 113.886743 233.907342 
L 113.949745 233.976873 
L 114.201754 234.420134 
L 114.264756 234.298454 
L 114.453763 234.889469 
L 114.831776 235.08068 
L 114.894778 234.507048 
L 115.209789 234.663493 
L 115.272791 234.39406 
L 115.335793 234.480974 
L 115.5248 234.420134 
L 115.650804 232.768769 
L 115.713807 232.942597 
L 115.776809 233.116425 
L 116.028818 232.760078 
L 116.469833 234.385368 
L 116.532835 234.246306 
L 116.595837 234.307146 
L 116.65884 234.437517 
L 116.973851 234.385368 
L 117.099855 234.524431 
L 117.351864 234.611345 
L 117.477868 234.315837 
L 117.540871 234.733024 
L 117.855882 234.446208 
L 117.981886 234.515739 
L 118.233895 234.359294 
L 118.359899 233.846502 
L 118.611908 233.968181 
L 118.67491 234.637419 
L 118.737912 234.541813 
L 118.800915 234.194158 
L 118.863917 234.428825 
L 119.052923 234.298454 
L 119.115926 234.029021 
L 119.178928 234.098552 
L 119.493939 233.794354 
L 119.556941 234.002947 
L 119.619943 233.776971 
L 119.682945 233.837811 
L 119.745948 233.829119 
L 119.997956 233.559686 
L 120.123961 233.203339 
L 120.186963 233.27287 
L 120.37597 232.933906 
L 120.438972 232.994745 
L 120.501974 233.307635 
L 120.564976 233.238104 
L 120.627978 233.359784 
L 121.005992 233.107733 
L 121.447007 233.455389 
L 121.510009 233.742205 
L 121.699016 233.568377 
L 121.82502 233.716131 
L 121.951025 233.637908 
L 122.266036 233.012128 
L 122.39204 232.351582 
L 122.770053 232.282051 
L 122.833055 232.229903 
L 123.463077 231.004416 
L 123.589082 231.291232 
L 123.715086 230.908811 
L 123.967095 230.40471 
L 124.030097 230.500315 
L 124.093099 230.813205 
L 124.156102 230.396018 
L 124.40811 230.291722 
L 124.534115 229.309594 
L 124.597117 229.709398 
L 125.038133 228.840259 
L 125.353144 229.839769 
L 125.668155 228.753345 
L 125.731157 228.961938 
L 125.794159 229.266137 
L 125.857161 228.927173 
L 125.920163 229.057544 
L 126.10917 229.153149 
L 126.172172 229.53557 
L 126.235174 229.213989 
L 126.298177 229.405199 
L 126.361179 229.187915 
L 126.550185 229.300903 
L 126.739192 227.658229 
L 126.991201 228.005885 
L 127.24321 226.945535 
L 127.558221 226.893386 
L 127.684225 226.093778 
L 127.873232 226.093778 
L 127.936234 227.362722 
L 127.999236 227.015066 
L 128.062238 225.763505 
L 128.12524 226.076395 
L 128.314247 226.424051 
L 128.377249 227.797291 
L 128.440251 227.345339 
L 128.503254 227.119363 
L 128.566256 227.797291 
L 128.818265 227.327956 
L 128.881267 227.484401 
L 129.007271 228.770728 
L 129.196278 228.370923 
L 129.385284 229.9093 
L 129.448287 229.187915 
L 129.637293 229.170532 
L 129.889302 227.293191 
L 130.078309 227.72776 
L 130.141311 228.509986 
L 130.330317 226.841238 
L 130.582326 226.024247 
L 130.771333 227.797291 
L 130.960339 227.10198 
L 131.023342 227.275808 
L 131.212348 226.78909 
L 131.401355 226.858621 
L 131.464357 226.493582 
L 131.527359 226.510965 
L 131.590361 226.580496 
L 131.653364 226.024247 
L 131.84237 225.433232 
L 132.031377 224.54671 
L 132.094379 224.703155 
L 132.346388 223.990461 
L 132.40939 224.059992 
L 132.472392 224.303351 
L 132.724401 222.634603 
L 132.787403 222.634603 
L 132.850406 222.791048 
L 132.913408 223.451594 
L 132.97641 222.721517 
L 133.165417 222.773666 
L 133.354423 221.834995 
L 133.417425 222.269565 
L 133.606432 221.713315 
L 133.669434 220.027185 
L 133.732436 220.06195 
L 133.795439 220.513903 
L 133.858441 220.235778 
L 134.047447 220.18363 
L 134.173452 219.488318 
L 134.236454 219.835974 
L 134.299456 219.783826 
L 134.488463 220.027185 
L 134.551465 219.227577 
L 134.677469 221.55687 
L 134.740472 222.999642 
L 134.929478 224.651007 
L 134.99248 222.339096 
L 135.055483 222.895345 
L 135.118485 223.156087 
L 135.181487 222.843197 
L 135.370494 223.208235 
L 135.433496 222.495541 
L 135.496498 222.547689 
L 135.622502 222.11312 
L 135.811509 221.974057 
L 135.937513 220.878942 
L 136.000516 220.287927 
L 136.063518 220.583434 
L 136.252524 221.070152 
L 136.315527 220.93109 
L 136.504533 218.862538 
L 136.69354 218.879921 
L 136.756542 219.679529 
L 136.819544 219.349256 
L 136.882546 219.210194 
L 137.26056 220.461755 
L 137.575571 218.219375 
L 137.764577 218.25414 
L 137.827579 218.06293 
L 138.016586 218.323672 
L 138.205593 218.775624 
L 138.268595 220.896324 
L 138.457601 221.24398 
L 138.520604 222.147885 
L 138.583606 220.983238 
L 138.646608 221.191832 
L 138.70961 221.956674 
L 138.898617 221.087535 
L 139.024621 223.816633 
L 139.087623 223.642805 
L 139.150626 223.573274 
L 139.402635 224.390265 
L 139.591641 228.058033 
L 139.780648 228.058033 
L 139.969654 227.293191 
L 140.032657 227.519167 
L 140.221663 227.814674 
L 140.284665 228.144947 
L 140.41067 229.309594 
L 140.473672 228.701196 
L 140.662679 228.127564 
L 140.725681 228.78811 
L 140.788683 228.144947 
L 140.851685 228.423072 
L 140.914687 228.822876 
L 141.166696 229.170532 
L 141.229698 228.935864 
L 141.355703 229.561645 
L 141.607712 229.605101 
L 141.733716 228.075416 
L 141.796718 228.770728 
L 141.985725 229.240063 
L 142.048727 228.822876 
L 142.111729 228.840259 
L 142.174731 229.353051 
L 142.237734 229.16184 
L 142.42674 229.526879 
L 142.489742 228.440455 
L 142.552745 228.614283 
L 142.615747 228.353541 
L 142.678749 228.544751 
L 142.867756 228.527369 
L 142.930758 227.658229 
L 142.99376 228.092799 
L 143.056762 227.588698 
L 143.434775 225.902567 
L 143.497778 226.580496 
L 143.56078 226.198075 
L 143.749786 226.128544 
L 143.938793 224.963897 
L 144.190802 224.355499 
L 144.316806 224.98128 
L 144.379808 224.54671 
L 144.442811 225.60706 
L 144.694819 225.433232 
L 144.883826 223.608039 
L 145.072833 222.599838 
L 145.135835 223.729719 
L 145.198837 223.347298 
L 145.324841 222.373861 
L 145.513848 222.008823 
L 145.765857 220.774645 
L 146.017866 219.957654 
L 146.080868 220.531286 
L 146.14387 220.18363 
L 146.206872 220.409606 
L 146.458881 219.488318 
L 146.521883 220.009802 
L 146.584885 219.505701 
L 146.647888 219.818591 
L 146.836894 220.392223 
L 146.899897 220.06195 
L 147.025901 221.330894 
L 147.088903 220.739879 
L 147.529919 219.662146 
L 147.84493 220.166247 
L 147.907932 219.55785 
L 147.970934 220.096716 
L 148.159941 220.670348 
L 148.222943 220.096716 
L 148.411949 221.99144 
L 148.600956 221.36566 
L 148.663958 220.705114 
L 148.72696 221.087535 
L 148.789963 220.774645 
L 148.852965 221.574253 
L 149.104974 221.869761 
L 149.167976 221.278746 
L 149.230978 222.582455 
L 149.29398 222.321713 
L 149.482987 222.704134 
L 149.545989 221.661167 
L 149.608991 222.599838 
L 149.671993 222.321713 
L 149.924002 221.591636 
L 149.987004 220.965855 
L 150.176011 221.974057 
L 150.365018 221.782847 
L 150.42802 222.391244 
L 150.491022 221.939292 
L 150.554024 222.078354 
L 150.617026 223.034407 
L 150.806033 222.860579 
L 150.869035 223.468977 
L 150.932037 222.877962 
L 150.99504 223.903547 
L 151.058042 223.468977 
L 151.247048 224.564093 
L 151.373053 223.781867 
L 151.436055 223.92093 
L 151.688064 224.737921 
L 151.814068 223.17347 
L 151.87707 223.260384 
L 151.940073 222.391244 
L 152.192081 221.36566 
L 152.318086 221.000621 
L 152.381088 221.522105 
L 152.570095 221.55687 
L 152.633097 221.834995 
L 152.822103 221.36566 
L 153.01111 221.974057 
L 153.074112 221.817612 
L 153.137114 221.661167 
L 153.200117 221.800229 
L 153.263119 222.408627 
L 153.515128 222.877962 
L 153.57813 222.773666 
L 153.704134 223.747102 
L 153.893141 224.059992 
L 154.019145 224.963897 
L 154.082147 224.807452 
L 154.460161 228.370923 
L 154.586165 226.493582 
L 154.838174 228.509986 
L 154.901176 228.231861 
L 154.964178 227.779909 
L 155.027181 228.301392 
L 155.216187 231.586739 
L 155.279189 230.387327 
L 155.342192 231.039182 
L 155.468196 232.760078 
L 155.657203 232.612324 
L 155.720205 233.889959 
L 155.783207 233.803045 
L 155.846209 233.950799 
L 156.098218 230.874045 
L 156.224222 232.638398 
L 156.287225 232.073457 
L 156.350227 232.716621 
L 156.539233 232.568867 
L 156.602236 233.559686 
L 156.72824 232.594941 
L 156.980249 233.472772 
L 157.169255 230.761057 
L 157.232258 231.256466 
L 157.421264 231.352072 
L 157.484266 230.769748 
L 157.673273 232.594941 
L 157.925282 233.090351 
L 157.988284 233.759588 
L 158.051286 232.855683 
L 158.114288 233.742205 
L 158.303295 234.037713 
L 158.366297 233.785662 
L 158.492302 235.132828 
L 158.555304 234.837321 
L 158.870315 233.055585 
L 159.185326 233.924724 
L 159.31133 232.925214 
L 159.374332 233.568377 
L 159.437335 233.203339 
L 159.689343 232.334199 
L 159.815348 233.055585 
L 159.87835 232.58625 
L 160.067357 233.090351 
L 160.130359 232.994745 
L 160.193361 233.889959 
L 160.256363 233.855193 
L 160.319365 233.776971 
L 160.634376 234.480974 
L 160.949387 234.254997 
L 161.075392 234.437517 
L 161.390403 233.116425 
L 161.642412 233.690057 
L 161.894421 234.098552 
L 162.083427 234.872086 
L 162.335436 235.463101 
L 162.524443 234.002947 
L 162.776451 233.672674 
L 162.839454 233.168573 
L 162.902456 233.342401 
L 162.965458 233.750897 
L 163.217467 233.342401 
L 163.280469 233.264178 
L 163.406473 232.386348 
L 163.59548 231.986544 
L 163.721484 232.794843 
L 163.784487 232.447187 
L 163.847489 232.46457 
L 164.477511 234.21154 
L 164.603515 233.603143 
L 164.666517 233.889959 
L 164.72952 233.872576 
L 164.981528 234.002947 
L 165.044531 233.603143 
L 165.359542 234.759098 
L 165.548548 232.864374 
L 165.61155 232.925214 
L 165.800557 232.994745 
L 165.989564 232.108223 
L 166.052566 232.116914 
L 166.241572 231.247775 
L 166.304575 231.369455 
L 166.367577 231.412912 
L 166.430579 230.934885 
L 166.493581 231.360763 
L 166.682588 231.699728 
L 166.74559 231.612814 
L 166.934597 230.057054 
L 167.123603 229.709398 
L 167.186605 230.196116 
L 167.249608 230.013597 
L 167.31261 229.544262 
L 167.564619 229.448656 
L 167.690623 229.822386 
L 167.816627 228.996704 
L 168.005634 229.413891 
L 168.194641 228.718579 
L 168.257643 228.927173 
L 168.446649 228.805493 
L 168.509652 228.927173 
L 168.950667 227.658229 
L 169.013669 227.692995 
L 169.076671 228.179713 
L 169.139674 228.16233 
L 169.32868 228.110182 
L 169.454685 229.552953 
L 169.517687 229.057544 
L 169.580689 229.135766 
L 169.832698 228.423072 
L 170.021705 229.127075 
L 170.46272 227.223659 
L 170.903735 225.954716 
L 171.155744 226.23284 
L 171.344751 227.049832 
L 171.722764 227.206277 
L 171.785766 226.702176 
L 171.974773 226.997683 
L 172.037775 227.484401 
L 172.100777 227.171511 
L 172.226782 226.267606 
L 172.47879 226.284989 
L 172.541793 226.215458 
L 172.604795 226.615262 
L 172.856804 226.823855 
L 172.919806 227.275808 
L 172.982808 227.015066 
L 173.04581 227.136745 
L 173.297819 226.284989 
L 173.360821 226.302372 
L 173.549828 224.946514 
L 173.738834 224.772686 
L 173.801837 224.98128 
L 173.990843 223.764484 
L 174.305854 223.764484 
L 174.431859 223.277766 
L 174.620865 222.843197 
L 174.683867 222.964876 
L 174.809872 223.208235 
L 174.872874 222.982259 
L 175.061881 223.086556 
L 175.124883 223.36468 
L 175.250887 222.565072 
L 175.313889 222.791048 
L 175.502896 223.816633 
L 175.691903 222.860579 
L 175.754905 222.443393 
L 176.006914 222.42601 
L 176.069916 222.704134 
L 176.19592 222.321713 
L 176.384927 222.582455 
L 176.510931 223.017025 
L 176.888945 221.921909 
L 176.951947 222.165268 
L 177.014949 221.974057 
L 177.077951 222.026206 
L 177.32996 221.591636 
L 177.518967 220.18363 
L 177.770975 220.270544 
L 177.833978 220.114099 
L 177.959982 220.566051 
L 178.148989 220.027185 
L 178.211991 220.131482 
L 178.274993 220.148864 
L 178.337995 220.774645 
L 178.400997 220.201013 
L 178.590004 220.044568 
L 178.716008 219.43617 
L 178.779011 219.575232 
L 178.842013 219.401405 
L 179.031019 219.366639 
L 179.094022 219.470936 
L 179.157024 219.297108 
L 179.220026 219.401405 
L 179.283028 219.74906 
L 179.472035 219.488318 
L 179.661041 217.298087 
L 179.724044 217.489298 
L 179.91305 217.697891 
L 180.039055 219.140663 
L 180.102057 218.567031 
L 180.165059 219.696912 
L 180.48007 219.366639 
L 180.795081 217.836954 
L 180.921085 217.576212 
L 180.984088 217.767422 
L 181.04709 217.402384 
L 181.299099 217.037345 
L 181.362101 217.19379 
L 181.488105 218.06293 
L 181.677112 217.211173 
L 181.740114 217.419767 
L 181.803116 217.454532 
L 181.929121 217.958633 
L 182.118127 218.06293 
L 182.244132 218.584413 
L 182.307134 218.549648 
L 182.559143 219.627381 
L 182.622145 219.488318 
L 182.685147 218.358437 
L 182.748149 218.549648 
L 182.811151 218.81039 
L 183.000158 218.480117 
L 183.189165 219.210194 
L 183.252167 218.706093 
L 183.504176 217.993399 
L 183.567178 217.75004 
L 183.63018 216.759221 
L 183.882189 216.394182 
L 183.945191 216.741838 
L 184.008193 216.376799 
L 184.071195 216.515862 
L 184.386207 215.994378 
L 184.512211 216.533244 
L 184.575213 216.324651 
L 184.76422 216.602776 
L 184.827222 216.950431 
L 184.890224 216.515862 
L 184.953226 216.689689 
L 185.016229 217.19379 
L 185.268237 215.890081 
L 185.394242 216.898283 
L 185.457244 218.37582 
L 185.772255 216.915666 
L 185.898259 219.175428 
L 186.150268 218.636562 
L 186.21327 218.149844 
L 186.276273 219.175428 
L 186.339275 218.68871 
L 186.528281 218.879921 
L 186.78029 217.993399 
L 187.032299 217.558829 
L 187.221306 217.802188 
L 187.410312 217.993399 
L 187.473314 218.462734 
L 187.662321 217.385001 
L 188.040334 216.515862 
L 188.103336 215.333832 
L 188.292343 215.316449 
L 188.48135 214.395161 
L 188.544352 214.238716 
L 188.733358 214.63852 
L 188.796361 214.551606 
L 188.859363 214.603755 
L 188.922365 214.516841 
L 188.985367 214.864497 
L 189.174374 214.499458 
L 189.300378 213.838912 
L 189.36338 214.238716 
L 189.426383 213.630319 
L 189.615389 213.421725 
L 189.678391 212.917624 
L 189.741394 213.039304 
L 190.182409 212.239696 
L 190.245411 212.32661 
L 190.308413 212.065868 
L 190.560422 211.978954 
L 190.686427 211.057666 
L 190.749429 211.266259 
L 190.938435 211.318408 
L 191.001438 211.666064 
L 191.190444 207.911381 
L 191.379451 208.119975 
L 191.505455 209.232473 
L 191.568457 208.224271 
L 191.63146 209.302004 
L 191.820466 208.571927 
L 192.072475 212.917624 
L 192.387486 209.162942 
L 192.513491 210.344972 
L 192.702497 210.310206 
L 192.828502 211.127197 
L 192.891504 212.6395 
L 192.954506 211.996337 
L 193.143513 211.353173 
L 193.269517 211.735595 
L 193.395521 209.927785 
L 193.710532 208.919583 
L 193.773535 209.02388 
L 193.836537 210.032081 
L 194.088546 211.005518 
L 194.151548 211.874657 
L 194.277552 210.379737 
L 194.466559 210.27544 
L 194.718568 207.459429 
L 194.907574 208.015678 
L 194.970576 207.494194 
L 195.159583 208.502396 
L 195.34859 208.293803 
L 195.537596 211.109814 
L 195.600598 211.335791 
L 195.852607 211.092432 
L 195.915609 209.64966 
L 195.978612 209.753957 
L 196.041614 209.510598 
L 196.23062 209.858254 
L 196.293623 210.623096 
L 196.356625 210.518799 
L 196.671636 211.527001 
L 196.923645 209.475832 
L 197.112651 209.580129 
L 197.175653 208.884817 
L 197.238656 209.33677 
L 197.36466 209.858254 
L 197.679671 209.058645 
L 197.805675 209.441067 
L 197.994682 209.232473 
L 198.057684 209.545363 
L 198.120686 210.866455 
L 198.183689 210.657862 
L 198.246691 211.040283 
L 198.435697 211.231494 
L 198.561702 210.449268 
L 198.687706 210.935986 
L 198.876713 211.492236 
L 198.939715 212.343992 
L 199.002717 211.909423 
L 199.06572 212.291844 
L 199.128722 212.100633 
L 199.380731 211.89204 
L 199.569737 209.64966 
L 199.821746 209.788722 
L 199.94775 209.02388 
L 200.010753 208.989114 
L 200.325764 208.015678 
L 200.388766 207.111773 
L 200.451768 207.285601 
L 200.892783 204.85201 
L 201.08179 205.025838 
L 201.270797 206.068806 
L 201.522805 206.798883 
L 201.64881 205.303963 
L 201.711812 205.303963 
L 201.774814 204.608651 
L 201.963821 204.400058 
L 202.152827 203.426622 
L 202.21583 201.653577 
L 202.404836 201.166859 
L 202.467838 202.383654 
L 202.530841 202.244592 
L 202.656845 202.696545 
L 202.845852 202.487951 
L 203.034858 203.009435 
L 203.09786 203.60045 
L 203.286867 203.148497 
L 203.475874 201.132094 
L 203.538876 201.305921 
L 203.727882 201.097328 
L 203.790885 201.444984 
L 203.853887 201.166859 
L 203.916889 201.375453 
L 203.979891 202.592248 
L 204.168898 202.73131 
L 204.294902 203.669981 
L 204.357904 202.557482 
L 204.420907 202.800841 
L 204.609913 201.827405 
L 204.672915 202.487951 
L 204.735918 201.618812 
L 204.861922 201.618812 
L 205.050929 201.340687 
L 205.113931 202.140295 
L 205.239935 201.166859 
L 205.302937 201.271156 
L 205.491944 200.853969 
L 205.554946 201.132094 
L 205.617948 200.749672 
L 205.680951 200.9235 
L 205.932959 200.645376 
L 206.058964 200.853969 
L 206.121966 200.714907 
L 206.184968 200.819203 
L 206.373975 200.575844 
L 206.499979 200.158657 
L 206.562982 200.367251 
L 206.940995 200.123892 
L 207.066999 200.506313 
L 207.697021 197.690301 
L 207.760023 197.794598 
L 207.94903 196.821162 
L 208.264041 198.211785 
L 208.390045 199.915298 
L 208.705056 197.481708 
L 208.768059 197.586005 
L 208.831061 198.594206 
L 209.020067 198.142254 
L 209.08307 197.30788 
L 209.146072 197.412177 
L 209.209074 197.551239 
L 209.587087 195.430539 
L 209.650089 195.952023 
L 209.713092 195.604367 
L 209.9651 195.18718 
L 210.028103 194.735227 
L 210.406116 198.211785 
L 210.595122 196.855928 
L 210.784129 196.12585 
L 210.847131 196.6821 
L 210.910133 196.299678 
L 211.036138 195.18718 
L 211.351149 196.230147 
L 211.414151 197.064521 
L 211.477153 196.299678 
L 211.66616 196.091085 
L 211.792164 199.463346 
L 211.918169 199.359049 
L 212.170177 197.864129 
L 212.23318 198.142254 
L 212.359184 196.36921 
L 212.737197 196.821162 
L 212.800199 197.377411 
L 213.241215 198.733269 
L 213.430221 199.359049 
L 213.556226 198.594206 
L 213.68223 199.811002 
L 213.871237 199.185221 
L 214.060244 196.508272 
L 214.312252 196.160616 
L 214.501259 197.064521 
L 214.564261 196.577803 
L 214.753268 197.134052 
L 214.879272 196.647334 
L 215.005277 197.064521 
L 215.194283 196.960224 
L 215.257285 196.6821 
L 215.635299 198.976628 
L 215.698301 198.594206 
L 215.824305 197.968426 
L 215.887307 198.698503 
L 216.076314 198.837565 
L 216.139316 199.150456 
L 216.202318 198.48991 
L 216.265321 198.733269 
L 216.580332 196.925459 
L 216.643334 197.238349 
L 216.706336 197.168818 
L 217.210354 200.054361 
L 217.39936 199.950064 
L 217.462362 199.11569 
L 217.651369 200.853969 
L 217.840376 201.549281 
L 218.029382 199.289518 
L 218.092384 199.98483 
L 218.470398 198.663738 
L 218.5334 197.551239 
L 218.848411 196.334444 
L 218.974415 195.221945 
L 219.226424 196.056319 
L 219.856446 190.424296 
L 220.108455 188.964142 
L 220.234459 190.632889 
L 220.297461 190.806717 
L 220.486468 189.902812 
L 220.927483 196.12585 
L 220.990486 193.170776 
L 221.053488 194.630931 
L 221.179492 192.753589 
L 221.368499 191.814919 
L 221.494503 192.232106 
L 221.620508 195.743429 
L 221.809514 195.673898 
L 221.935519 192.857886 
L 221.998521 193.205542 
L 222.061523 191.814919 
L 222.313532 190.876248 
L 222.502539 193.170776 
L 222.880552 191.710622 
L 222.943554 192.684058 
L 223.132561 192.336403 
L 223.636578 187.538753 
L 223.69958 187.712581 
L 223.762583 189.207501 
L 223.825585 188.825079 
L 224.014591 188.998907 
L 224.518609 193.37937 
L 224.581611 192.544996 
L 224.644613 192.684058 
L 224.707616 193.761791 
L 225.148631 186.321958 
L 225.337638 186.600082 
L 225.40064 186.287192 
L 225.589646 190.459061 
L 225.778653 188.616486 
L 225.841655 189.76375 
L 225.904657 189.381328 
L 226.030662 188.755548 
L 226.219668 188.755548 
L 226.282671 189.937578 
L 226.345673 189.833281 
L 226.408675 188.998907 
L 226.471677 189.416094 
L 226.660684 189.485625 
L 226.723686 188.546955 
L 226.912693 191.641091 
L 227.101699 192.405934 
L 227.164701 191.050076 
L 227.227704 191.641091 
L 227.353708 193.031714 
L 227.542715 193.866088 
L 227.605717 192.823121 
L 227.794723 194.665696 
L 228.235739 190.911014 
L 228.424745 190.459061 
L 228.55075 191.015311 
L 228.676754 190.354765 
L 228.865761 190.632889 
L 228.928763 191.050076 
L 229.054768 192.475465 
L 229.11777 192.162575 
L 229.306776 191.988747 
L 229.432781 189.972343 
L 229.810794 188.512189 
L 229.873796 189.068438 
L 229.936798 188.720782 
L 229.999801 188.720782 
L 230.314812 187.538753 
L 230.440816 186.252426 
L 230.629823 186.356723 
L 230.692825 186.113364 
L 230.755827 186.217661 
L 230.881831 186.634848 
L 231.13384 185.904771 
L 231.196842 185.27899 
L 231.259845 185.487584 
L 231.322847 186.565317 
L 231.511853 185.522349 
L 231.574856 186.530551 
L 231.637858 182.775869 
L 231.70086 183.053993 
L 232.015871 181.385246 
L 232.078873 181.420011 
L 232.141875 181.559074 
L 232.204878 180.933293 
L 232.393884 180.307513 
L 232.519889 178.499703 
L 232.645893 176.100878 
L 232.897902 173.771584 
L 232.960904 175.475098 
L 233.023906 174.814552 
L 233.086908 174.884083 
L 233.527924 171.963774 
L 233.71693 171.477056 
L 233.905937 168.765341 
L 233.968939 168.69581 
L 234.220948 170.851276 
L 234.28395 170.781745 
L 234.409955 168.69581 
L 234.598961 167.722374 
L 234.724966 162.368475 
L 234.787968 162.924724 
L 234.85097 162.924724 
L 235.102979 160.004416 
L 235.165981 160.491134 
L 235.291985 161.395039 
L 235.606996 158.335668 
L 235.733001 160.908321 
L 236.111014 156.04114 
L 236.363023 155.693484 
L 236.804038 163.689567 
L 236.867041 159.448166 
L 236.930043 159.65676 
L 237.056047 164.732534 
L 237.245054 164.871596 
L 237.308056 166.540344 
L 237.371058 159.448166 
L 237.43406 159.726291 
L 237.938078 165.845033 
L 238.127085 165.219252 
L 238.190087 165.427846 
L 238.253089 165.288783 
L 238.316091 165.08019 
L 238.694104 168.556748 
L 238.757107 170.851276 
L 238.820109 170.781745 
L 239.13512 165.08019 
L 239.261124 166.262219 
L 239.576135 163.828629 
L 239.639137 164.037223 
L 239.70214 166.401282 
L 239.891146 165.984095 
L 239.954148 166.192688 
L 240.143155 163.689567 
L 240.332162 165.010659 
L 240.395164 164.245816 
L 240.521168 164.941128 
L 240.836179 162.646599 
L 240.899181 162.924724 
L 240.962184 164.037223 
L 241.025186 163.411442 
L 241.214192 165.010659 
L 241.277195 164.871596 
L 241.340197 164.523941 
L 241.403199 165.288783 
L 241.466201 163.133318 
L 241.71821 160.908321 
L 241.844214 159.448166 
L 241.907217 160.004416 
L 242.096223 158.891917 
L 242.28523 161.047383 
L 242.348232 160.143478 
L 242.600241 159.865353 
L 242.663243 159.934884 
L 242.726245 158.822386 
L 242.789247 160.213009 
L 242.978254 160.28254 
L 243.041256 160.699727 
L 243.167261 164.454409 
L 243.230263 162.994255 
L 243.419269 161.534101 
L 243.482272 159.309104 
L 243.545274 159.865353 
L 243.608276 159.726291 
L 243.671278 158.613792 
L 243.860285 157.640356 
L 243.923287 157.84895 
L 243.986289 157.988012 
L 244.3013 156.180202 
L 244.490307 155.276297 
L 244.742316 151.104428 
L 244.805318 152.42552 
L 244.86832 150.61771 
L 244.931322 151.521615 
L 244.994325 151.382552 
L 245.183331 149.644274 
L 245.246333 149.783336 
L 245.309336 149.922398 
L 245.372338 151.313021 
L 245.43534 151.104428 
L 245.687349 149.713805 
L 245.750351 150.409116 
L 245.876355 148.948962 
L 246.128364 151.799739 
L 246.506377 146.167716 
L 246.632382 145.82006 
L 246.947393 147.488808 
L 247.073397 151.104428 
L 247.136399 148.8099 
L 247.199402 150.826303 
L 247.388408 151.938802 
L 247.45141 151.660677 
L 247.514413 150.200523 
L 247.577415 150.895834 
L 247.640417 152.912238 
L 247.892426 155.345828 
L 247.955428 154.650517 
L 248.01843 156.458327 
L 248.081432 156.249733 
L 248.270439 155.484891 
L 248.333441 153.329425 
L 248.396443 154.094267 
L 248.522448 159.100511 
L 248.711454 155.623953 
L 248.774457 158.544261 
L 248.837459 158.057543 
L 248.963463 159.934884 
L 249.278474 161.186445 
L 249.341476 160.977852 
L 249.404479 163.828629 
L 249.593485 162.716131 
L 249.656487 162.924724 
L 249.782492 169.043466 
L 249.845494 167.722374 
L 250.097503 168.348154 
L 250.223507 170.781745 
L 250.286509 170.50362 
L 250.475516 165.010659 
L 250.538518 165.70597 
L 250.60152 165.636439 
L 250.916531 161.603632 
L 250.979534 162.298944 
L 251.042536 162.577068 
L 251.105538 161.603632 
L 251.16854 162.229413 
L 251.357547 162.09035 
L 251.420549 163.550504 
L 251.483551 168.904403 
L 251.546554 167.722374 
L 251.609556 169.738777 
L 251.798562 170.225495 
L 251.861565 168.556748 
L 251.924567 168.904403 
L 252.050571 173.076273 
L 252.239578 171.824712 
L 252.30258 169.599715 
L 252.365582 170.712213 
L 252.491587 171.68565 
L 252.680593 171.616118 
L 252.932602 173.145804 
L 253.247613 167.444249 
L 253.310615 168.417685 
L 253.373617 170.642682 
L 253.562624 171.059869 
L 253.625626 170.851276 
L 253.688628 172.033305 
L 253.751631 171.1294 
L 253.814633 171.546587 
L 254.066642 176.55283 
L 254.129644 173.632522 
L 254.192646 174.11924 
L 254.255648 174.536427 
L 254.507657 173.841115 
L 254.570659 172.520023 
L 254.696664 183.193056 
L 254.948672 180.516106 
L 255.074677 180.933293 
L 255.137679 181.211418 
L 255.326686 182.8454 
L 255.578694 177.73486 
L 255.767701 177.004783 
L 255.893705 178.882124 
L 255.956708 178.951655 
L 256.01971 179.890326 
L 256.271719 179.890326 
L 256.397723 181.941495 
L 256.460725 181.246183 
L 256.649732 182.393447 
L 256.712734 181.489542 
L 256.775736 182.150088 
L 256.838738 182.602041 
L 256.901741 184.201257 
L 257.090747 185.696177 
L 257.153749 184.096961 
L 257.216752 184.896569 
L 257.342756 183.992664 
L 257.531763 183.123525 
L 257.657767 184.479382 
L 257.972778 180.516106 
L 258.098782 181.03759 
L 258.161785 180.968059 
L 258.224787 179.612201 
L 258.413793 179.368842 
L 258.476796 179.751264 
L 258.6028 182.428213 
L 258.854809 184.409851 
L 258.917811 184.270789 
L 258.980813 183.957898 
L 259.106818 185.244225 
L 259.358827 184.687976 
L 259.421829 183.436415 
L 259.484831 183.610243 
L 259.73684 185.730943 
L 259.799842 184.792272 
L 259.988849 189.972343 
L 260.366862 187.399691 
L 260.681873 182.393447 
L 260.744875 182.914931 
L 261.059886 179.786029 
L 261.122888 180.098919 
L 261.18589 179.334077 
L 261.311895 180.481341 
L 261.500901 180.237982 
L 261.626906 183.992664 
L 261.689908 183.15829 
L 261.75291 183.366884 
L 261.941917 181.941495 
L 262.004919 182.428213 
L 262.067921 182.184854 
L 262.130923 182.080557 
L 262.193926 181.628605 
L 262.445934 182.184854 
L 262.571939 180.689934 
L 262.634941 180.968059 
L 262.823948 180.828996 
L 262.88695 181.002824 
L 263.012954 182.602041 
L 263.075956 182.115323 
L 263.327965 182.741103 
L 263.516972 183.818836 
L 263.768981 183.575477 
L 263.957987 186.252426 
L 264.336 189.137969 
L 264.588009 186.878207 
L 264.714014 185.174694 
L 265.029025 186.009067 
L 265.218031 184.236023 
L 265.281033 184.34032 
L 265.47004 184.201257 
L 265.659047 183.575477 
L 265.722049 184.583679 
L 265.911055 184.375085 
L 265.974058 185.452818 
L 266.03706 182.289151 
L 266.100062 182.602041 
L 266.793086 178.082516 
L 266.856089 178.673531 
L 266.982093 178.847359 
L 267.045095 179.820795 
L 267.234102 177.943453 
L 267.360106 173.354397 
L 267.423108 173.423928 
L 267.675117 171.963774 
L 267.738119 173.006742 
L 267.801122 172.798148 
L 267.864124 172.728617 
L 267.927126 173.006742 
L 268.116133 172.728617 
L 268.179135 174.814552 
L 268.242137 174.466896 
L 268.305139 174.327833 
L 268.368141 175.023145 
L 268.62015 174.814552 
L 268.683152 173.354397 
L 268.746155 173.841115 
L 268.998163 172.241899 
L 269.250172 178.291109 
L 269.439179 180.481341 
L 269.880194 174.536427 
L 269.943196 174.74502 
L 270.006199 175.857519 
L 270.069201 175.162207 
L 270.32121 176.55283 
L 270.447214 174.675489 
L 270.573218 175.61416 
L 270.762225 174.953614 
L 270.825227 175.92705 
L 271.014234 174.188771 
L 271.266243 173.354397 
L 271.455249 171.824712 
L 271.833262 168.417685 
L 271.896265 169.32159 
L 272.085271 168.765341 
L 272.148273 170.712213 
L 272.211276 169.460653 
L 272.33728 170.155964 
L 272.526287 169.182528 
L 272.589289 169.391121 
L 272.652291 169.599715 
L 272.715293 170.851276 
L 272.778295 169.669246 
L 272.967302 169.87784 
L 273.093306 169.669246 
L 273.156309 168.556748 
L 273.219311 168.973935 
L 273.534322 170.50362 
L 273.597324 169.599715 
L 273.660326 169.808308 
L 273.849333 169.182528 
L 274.101342 164.384878 
L 274.290348 165.149721 
L 274.353351 162.924724 
L 274.416353 163.063786 
L 274.479355 162.646599 
L 274.542357 163.828629 
L 274.731364 162.855193 
L 274.794366 162.994255 
L 274.983373 164.663003 
L 275.172379 164.176285 
L 275.361386 166.123157 
L 275.424388 165.427846 
L 275.613395 162.368475 
L 275.676397 162.716131 
L 276.05441 164.663003 
L 276.117412 163.689567 
L 276.243417 164.871596 
L 276.306419 166.609875 
L 276.495425 166.192688 
L 276.558428 166.748938 
L 276.62143 166.262219 
L 276.747434 167.861436 
L 276.936441 167.444249 
L 277.062445 164.245816 
L 277.125447 164.663003 
L 277.18845 166.679406 
L 277.566463 164.384878 
L 277.629465 165.914564 
L 277.818472 165.219252 
L 277.944476 172.589555 
L 278.007478 172.728617 
L 278.07048 172.589555 
L 278.259487 172.450492 
L 278.511496 169.32159 
L 278.826507 166.888 
L 278.889509 165.636439 
L 278.952511 165.70597 
L 279.20452 165.427846 
L 279.393527 168.487216 
L 279.582533 168.139561 
L 279.708538 169.669246 
L 279.77154 168.139561 
L 279.834542 168.348154 
L 280.023549 168.139561 
L 280.149553 167.444249 
L 280.275557 167.722374 
L 280.464564 167.652843 
L 280.590568 166.818469 
L 280.716573 168.556748 
L 280.905579 168.278623 
L 281.031584 167.583311 
L 281.094586 168.000498 
L 281.409597 165.566908 
L 281.598604 166.748938 
L 281.78761 166.818469 
L 281.913615 165.914564 
L 282.291628 168.765341 
L 282.35463 167.722374 
L 282.480635 169.32159 
L 282.669641 169.043466 
L 282.732643 169.599715 
L 282.795646 169.460653 
L 282.858648 168.556748 
L 283.173659 167.51378 
L 283.236661 168.556748 
L 283.362665 161.534101 
L 283.551672 158.266137 
L 283.614674 158.544261 
L 283.677676 158.891917 
L 283.740679 158.683324 
L 283.803681 158.47473 
L 283.992687 157.223169 
L 284.181694 158.683324 
L 284.244696 159.030979 
L 284.559707 157.779419 
L 284.622709 158.544261 
L 284.685712 157.292701 
L 285.000723 155.971609 
L 285.063725 155.832546 
L 285.126727 154.789579 
L 285.50474 151.591146 
L 285.567742 151.938802 
L 285.756749 152.634113 
L 285.945756 149.783336 
L 286.008758 150.06146 
L 286.260767 147.975526 
L 286.323769 148.323182 
L 286.449773 151.034897 
L 286.63878 150.06146 
L 286.701782 150.200523 
L 286.764784 150.130992 
L 286.827786 150.478647 
L 286.890789 151.452084 
L 287.079795 151.521615 
L 287.142797 152.077864 
L 287.2058 152.008333 
L 287.961826 146.167716 
L 288.150833 147.141152 
L 288.213835 146.932558 
L 288.402841 145.611467 
L 288.591848 149.157555 
L 288.65485 147.766932 
L 288.843857 148.25365 
L 288.906859 147.488808 
L 288.969861 144.846624 
L 289.032864 145.055217 
L 289.284872 142.969283 
L 289.410877 143.873188 
L 289.473879 146.515372 
L 289.536881 145.959122 
L 289.725888 146.515372 
L 289.914894 147.210683 
L 290.166903 145.611467 
L 290.229905 145.680998 
L 290.418912 143.525532 
L 290.607919 142.273971 
L 290.733923 140.813817 
L 290.796925 140.813817 
L 290.859927 140.048974 
L 291.048934 139.77085 
L 291.111936 140.466161 
L 291.300943 138.797413 
L 291.552952 137.96304 
L 291.678956 143.38647 
L 291.741958 142.482565 
L 291.993967 143.525532 
L 292.119971 139.909912 
L 292.182974 139.631787 
L 292.37198 139.701318 
L 292.434982 140.535692 
L 292.560987 139.492725 
L 292.623989 140.39663 
L 292.812996 140.257568 
L 292.875998 138.658351 
L 292.939 139.562256 
L 293.002002 143.664594 
L 293.065004 140.605223 
L 293.254011 141.300535 
L 293.317013 140.605223 
L 293.380015 142.273971 
L 293.443018 141.509128 
L 293.50602 141.787253 
L 293.695026 141.787253 
L 293.758029 142.691158 
L 293.884033 140.327099 
L 294.136042 141.57866 
L 294.325048 145.333342 
L 294.829066 135.946636 
L 295.018073 136.016167 
L 295.144077 133.652108 
L 295.207079 134.069295 
L 295.459088 131.496642 
L 295.52209 132.331016 
L 295.585092 132.052891 
L 295.711097 131.427111 
L 295.900103 131.635704 
L 296.08911 127.394304 
L 296.152112 125.93415 
L 296.341119 126.142743 
L 296.530126 123.709153 
L 296.593128 123.57009 
L 296.782134 121.275562 
L 296.845137 122.31853 
L 296.908139 120.858375 
L 297.034143 120.927907 
L 297.286152 125.516963 
L 297.349154 124.12634 
L 297.412156 124.613058 
L 297.475159 125.099776 
L 297.664165 127.881022 
L 297.727167 126.003681 
L 297.916174 130.662268 
L 298.105181 132.261485 
L 298.168183 133.79117 
L 298.294187 127.602897 
L 298.357189 128.506802 
L 298.546196 127.255242 
L 298.6722 128.228678 
L 298.798205 126.142743 
L 298.987211 126.281806 
L 299.428227 134.347419 
L 299.491229 134.347419 
L 299.680236 128.228678 
L 299.869242 131.148986 
L 299.932244 130.17555 
L 299.995247 130.592737 
L 300.121251 134.625544 
L 300.436262 130.870862 
L 300.562266 127.255242 
L 300.751273 127.116179 
L 300.814275 131.288049 
L 300.94028 120.997438 
L 301.003282 122.805248 
L 301.381295 119.398221 
L 301.444297 120.441189 
L 301.633304 119.606815 
L 301.885313 111.819325 
L 302.137321 110.984951 
L 302.515335 105.49199 
L 302.578337 106.395895 
L 302.641339 110.011515 
L 302.704341 108.273236 
L 302.767343 110.359171 
L 303.019352 109.385735 
L 303.145357 112.514637 
L 303.208359 112.306043 
L 303.397365 111.749794 
L 303.52337 116.964631 
L 303.586372 114.600572 
L 303.649374 115.504477 
L 303.838381 114.044322 
L 303.964385 110.359171 
L 304.09039 113.070886 
L 304.279396 111.680263 
L 304.342399 112.236512 
L 304.405401 115.71307 
L 304.468403 114.809165 
L 304.531405 115.852132 
L 304.720412 112.584168 
L 304.846416 114.809165 
L 304.909418 113.696667 
L 305.161427 111.541201 
L 305.287432 113.349011 
L 305.413436 111.819325 
L 305.602443 112.027919 
L 305.665445 112.653699 
L 305.728447 112.09745 
L 305.854451 114.252916 
L 306.484473 105.909177 
L 306.67348 113.835729 
L 306.736482 109.802922 
L 306.925489 110.081046 
L 307.051493 113.974791 
L 307.114495 113.209948 
L 307.177498 110.637296 
L 307.429506 112.514637 
L 307.492509 112.375575 
L 307.555511 109.246673 
L 307.618513 109.455266 
L 307.80752 107.925581 
L 307.870522 108.064643 
L 307.933524 108.064643 
L 308.059528 105.422459 
L 308.311537 108.551361 
L 308.374539 105.978708 
L 308.437542 106.256833 
L 308.500544 107.85605 
L 308.68955 107.577925 
L 308.941559 109.594328 
L 309.193568 110.91542 
L 309.25657 109.316204 
L 309.319572 109.66386 
L 309.382575 111.124014 
L 309.571581 111.402138 
L 309.760588 110.359171 
L 309.82359 111.749794 
L 310.012597 110.706827 
L 310.075599 111.332607 
L 310.138601 110.150578 
L 310.201603 110.776358 
L 310.453612 113.974791 
L 310.579616 111.749794 
L 310.642619 111.958388 
L 310.894628 112.375575 
L 310.95763 112.72323 
L 311.083634 118.70291 
L 311.146636 115.295883 
L 311.776658 105.909177 
L 311.839661 107.369331 
L 311.965665 113.27948 
L 312.217674 115.852132 
L 312.280676 115.156821 
L 312.343678 115.574008 
L 312.469683 117.381818 
L 312.658689 120.441189 
L 312.721691 124.473995 
L 312.784694 123.709153 
L 312.910698 123.013841 
L 313.099705 118.494316 
L 313.162707 125.169307 
L 313.225709 123.291966 
L 313.288711 123.431028 
L 313.54072 121.275562 
L 313.666724 123.57009 
L 313.729727 126.073212 
L 313.792729 133.443514 
L 313.981735 136.294292 
L 314.044738 135.59898 
L 314.233744 125.3779 
L 314.422751 125.93415 
L 314.485753 131.35758 
L 314.548755 126.420868 
L 314.611757 128.506802 
L 314.67476 129.688832 
L 314.926768 126.420868 
L 314.989771 128.784927 
L 315.115775 124.404464 
L 315.430786 122.040405 
L 315.55679 125.238838 
L 315.745797 123.361497 
L 315.808799 125.308369 
L 315.871801 124.265402 
L 315.934804 123.57009 
L 315.997806 123.848215 
L 316.186812 126.281806 
L 316.249815 129.897426 
L 316.312817 128.993521 
L 316.375819 129.341176 
L 316.438821 128.506802 
L 316.627828 128.089616 
L 316.69083 127.533366 
L 316.816834 129.480239 
L 316.879837 126.629461 
L 317.068843 127.185711 
L 317.131845 126.977117 
L 317.194848 128.715396 
L 317.25785 126.907586 
L 317.320852 127.811491 
L 317.509859 127.046648 
L 317.761867 119.189628 
L 318.013876 124.056809 
L 318.139881 117.659942 
L 318.202883 118.772441 
L 318.454892 115.434945 
L 318.517894 116.060726 
L 318.580896 116.686506 
L 318.643898 116.547444 
L 318.832905 117.034162 
L 319.021912 122.248999 
L 319.084914 125.864619 
L 319.27392 123.917746 
L 319.336923 124.473995 
L 319.525929 118.424785 
L 319.714936 120.093533 
L 319.777938 118.841972 
L 319.84094 119.745877 
L 319.966945 120.024002 
L 320.155951 119.467752 
L 320.344958 122.805248 
L 320.40796 118.70291 
L 320.659969 119.537283 
L 320.848975 124.960714 
L 321.037982 125.725556 
L 321.289991 132.678672 
L 321.605002 129.897426 
L 321.668004 130.523206 
L 321.920013 131.844298 
L 321.983015 129.758363 
L 322.046017 131.288049 
L 322.109019 133.513046 
L 322.361028 133.373983 
L 322.550035 142.969283 
L 322.613037 142.413033 
L 322.865046 139.2146 
L 322.928048 141.995846 
L 322.99105 139.701318 
L 323.054052 142.273971 
L 323.306061 142.760689 
L 323.369063 142.621627 
L 323.432066 143.108345 
L 323.495068 137.615384 
L 323.684074 139.77085 
L 323.747077 139.145069 
L 323.810079 146.237247 
L 323.873081 145.541935 
L 323.936083 141.995846 
L 324.12509 142.969283 
L 324.188092 145.055217 
L 324.314096 142.273971 
L 324.377099 145.055217 
L 324.566105 143.942719 
L 324.629107 144.01225 
L 324.755112 145.402873 
L 324.818114 145.055217 
L 325.133125 140.605223 
L 325.259129 142.83022 
L 325.448136 141.926315 
L 325.511138 144.290375 
L 325.57414 142.760689 
L 325.700145 141.926315 
L 325.889152 142.134909 
L 326.078158 136.989603 
L 326.14116 135.320856 
L 326.393169 137.476321 
L 326.519174 137.337259 
L 326.582176 136.155229 
L 326.771182 135.877105 
L 326.897187 132.122423 
L 326.960189 132.331016 
L 327.023191 132.191954 
L 327.212198 132.191954 
L 327.2752 131.288049 
L 327.401204 132.470078 
L 327.653213 132.956796 
L 327.779218 128.228678 
L 327.84222 128.854458 
L 327.905222 127.811491 
L 328.094229 126.55993 
L 328.157231 127.950553 
L 328.220233 126.768524 
L 328.283235 129.341176 
L 328.346237 129.202114 
L 328.535244 128.854458 
L 328.724251 125.516963 
L 328.787253 127.950553 
L 329.228268 132.470078 
L 329.417275 133.095859 
L 329.480277 133.860701 
L 329.669284 145.333342 
L 329.85829 145.472404 
L 329.921292 143.803657 
L 329.984295 144.846624 
L 330.110299 145.82006 
L 330.299306 145.750529 
L 330.362308 145.055217 
L 330.488312 148.392713 
L 330.551314 148.25365 
L 330.866325 143.803657 
L 330.929328 144.220843 
L 330.99233 143.108345 
L 331.181336 141.787253 
L 331.370343 137.476321 
L 331.433345 137.545853 
L 331.685354 138.102102 
L 331.811358 140.39663 
L 331.874361 140.188036 
L 332.252374 138.310695 
L 332.504383 140.813817 
L 332.567385 140.674755 
L 332.630387 141.02241 
L 332.693389 140.605223 
L 332.756391 142.969283 
L 332.945398 143.247407 
L 333.0084 142.343502 
L 333.071402 142.760689 
L 333.134405 142.134909 
L 333.197407 145.124748 
L 333.386414 146.584903 
L 333.638422 142.413033 
L 333.890431 143.38647 
L 334.079438 141.509128 
L 334.268444 141.231004 
L 334.331447 140.744286 
L 334.394449 141.300535 
L 334.520453 139.2146 
L 334.835464 137.96304 
L 335.213477 141.509128 
L 335.339482 133.16539 
L 335.402484 133.373983 
L 335.591491 131.35758 
L 335.654493 133.026328 
L 335.843499 129.132583 
L 336.095508 127.672429 
L 336.221513 128.645865 
L 336.284515 128.36774 
L 336.473521 126.977117 
L 336.536524 127.046648 
L 336.662528 127.394304 
L 336.72553 127.116179 
L 336.914537 128.020084 
L 336.977539 127.672429 
L 337.166546 129.758363 
L 337.355552 129.897426 
L 337.418554 130.801331 
L 337.481557 130.662268 
L 337.607561 128.854458 
L 337.85957 128.923989 
L 337.922572 128.159147 
L 338.048576 133.930233 
L 338.237583 131.35758 
L 338.42659 120.302126 
L 338.489592 120.997438 
L 338.741601 122.527123 
L 338.804603 122.527123 
L 338.867605 121.345094 
L 338.930607 123.431028 
L 339.182616 123.013841 
L 339.245618 122.109936 
L 339.30862 123.987277 
L 339.371623 123.083372 
L 339.560629 123.639622 
L 340.064647 119.537283 
L 340.253653 118.077129 
L 340.505662 118.216192 
L 340.694669 119.189628 
L 340.946678 117.381818 
L 341.135684 122.31853 
L 341.324691 122.527123 
L 341.513698 125.93415 
L 341.5767 127.046648 
L 341.828709 124.613058 
L 341.891711 124.821651 
L 341.954713 128.228678 
L 342.017715 127.533366 
L 342.206722 130.523206 
L 342.458731 125.725556 
L 342.710739 123.778684 
L 342.773742 124.404464 
L 342.899746 123.778684 
L 343.151755 124.195871 
L 343.277759 126.351337 
L 343.340761 125.864619 
L 343.529768 126.768524 
L 343.718775 123.431028 
L 343.781777 121.414625 
L 343.970783 122.179467 
L 344.15979 119.398221 
L 344.537803 118.007598 
L 344.600805 118.841972 
L 344.663808 118.633378 
L 344.915816 117.799005 
L 345.104823 119.398221 
L 345.356832 119.050565 
L 345.419834 119.189628 
L 345.860849 115.08729 
L 345.986854 115.852132 
L 346.301865 114.809165 
L 346.364867 115.017758 
L 346.427869 114.809165 
L 346.616876 114.670103 
L 346.679878 114.809165 
L 346.805882 112.653699 
L 346.868885 112.653699 
L 347.120893 113.27948 
L 347.183896 105.144334 
L 347.246898 105.422459 
L 348.191931 96.870127 
L 348.506942 95.340442 
L 348.569944 96.035753 
L 348.632946 95.896691 
L 348.884955 95.479504 
L 348.947957 92.420133 
L 349.01096 93.254507 
L 349.073962 92.420133 
L 349.262968 92.83732 
L 349.325971 92.698258 
L 349.451975 93.671694 
L 349.514977 93.115445 
L 349.703984 92.976382 
L 349.766986 93.254507 
L 349.89299 91.446697 
L 349.955993 92.142009 
L 350.144999 90.473261 
L 350.208001 92.281071 
L 350.271004 90.612323 
L 350.334006 91.168572 
L 350.397008 91.446697 
L 350.586015 91.168572 
L 350.712019 87.552952 
L 350.838023 88.109202 
L 351.02703 88.109202 
L 351.090032 86.857641 
L 351.153034 87.692015 
L 351.279039 88.526388 
L 351.468045 88.665451 
L 351.657052 91.02951 
L 351.909061 90.195136 
L 352.035065 91.446697 
L 352.098067 89.499825 
L 352.16107 89.638887 
L 352.413078 87.135765 
L 352.476081 88.109202 
L 352.539083 87.970139 
L 352.602085 88.109202 
L 352.854094 83.79827 
L 352.917096 84.354519 
L 352.980098 84.910768 
L 353.232107 77.818591 
L 353.484116 73.646721 
L 353.736125 74.342033 
L 353.799127 80.18265 
L 353.862129 77.679528 
L 354.114138 76.010781 
L 354.240142 76.706092 
L 354.303144 76.149843 
L 354.366147 76.427968 
L 354.618155 76.427968 
L 354.681158 77.401404 
L 354.74416 76.984217 
L 354.807162 74.342033 
L 354.996169 76.149843 
L 355.122173 74.481095 
L 355.185175 74.898282 
L 355.248177 81.573273 
L 355.437184 85.60608 
L 355.500186 84.215457 
L 355.689193 88.943575 
L 355.8782 84.493582 
L 355.941202 86.023267 
L 356.004204 85.049831 
L 356.067206 85.327955 
L 356.130208 84.493582 
L 356.319215 85.049831 
L 356.382217 87.41389 
L 356.445219 85.049831 
L 356.508222 87.41389 
L 356.571224 86.996703 
L 356.76023 87.692015 
L 356.886235 86.996703 
L 356.949237 88.526388 
L 357.012239 86.857641 
L 357.32725 85.188893 
L 357.453255 81.434211 
L 357.642261 80.877961 
L 357.768266 79.348276 
L 357.831268 80.043588 
L 357.89427 80.18265 
L 358.209281 76.56703 
L 358.335285 81.017024 
L 358.524292 81.712335 
L 358.587294 80.321712 
L 358.650296 72.534223 
L 358.713299 74.202971 
L 359.091312 68.223291 
L 359.154314 73.924846 
L 359.217316 71.421724 
L 359.469325 66.832668 
L 359.532327 67.52798 
L 359.658332 71.421724 
L 359.847338 71.699849 
L 359.973343 68.640478 
L 360.036345 69.474852 
L 360.540362 64.190484 
L 360.918376 67.249855 
L 360.981378 70.170164 
L 361.170384 66.971731 
L 361.233387 67.667042 
L 361.359391 70.587351 
L 361.422393 68.779541 
L 361.6114 70.170164 
L 361.674402 70.031101 
L 361.863409 77.679528 
L 362.052415 79.209214 
L 362.17842 75.037344 
L 362.241422 76.149843 
L 362.304424 75.176407 
L 362.493431 75.593594 
L 362.556433 74.75922 
L 362.619435 75.871718 
L 362.682437 73.785784 
L 362.745439 73.924846 
L 363.06045 72.534223 
L 363.123453 73.090472 
L 363.438464 68.084229 
L 363.501466 68.918603 
L 363.564468 73.090472 
L 363.62747 72.95141 
L 363.816477 72.95141 
L 364.005484 71.560787 
L 364.068486 65.302983 
L 364.320495 58.627992 
L 364.383497 60.992051 
L 364.446499 59.601428 
L 364.509501 54.734247 
L 364.887514 50.979565 
L 364.950517 52.370188 
L 365.139523 53.0655 
L 365.265528 58.48893 
L 365.32853 56.263933 
L 365.391532 57.376431 
L 365.580539 57.515493 
L 365.706543 51.953001 
L 365.832547 51.953001 
L 366.021554 52.926437 
L 366.084556 54.038936 
L 366.147558 58.071743 
L 366.210561 55.429559 
L 366.462569 57.793618 
L 366.525572 57.93268 
L 366.588574 58.627992 
L 366.651576 58.071743 
L 366.714578 58.210805 
L 366.903585 54.595185 
L 366.966587 55.568621 
L 367.029589 55.012372 
L 367.092591 55.012372 
L 367.3446 50.423316 
L 367.470605 52.648313 
L 367.596609 51.953001 
L 367.91162 56.820182 
L 367.974622 56.263933 
L 368.037624 58.349867 
L 368.47864 51.953001 
L 368.793651 52.787375 
L 368.919655 49.588942 
L 369.171664 50.562378 
L 369.297668 47.224883 
L 369.549677 49.728004 
L 369.612679 49.728004 
L 369.738684 56.263933 
L 369.801686 55.846746 
L 370.053695 60.852989 
L 370.116697 60.435802 
L 370.179699 60.018615 
L 370.242701 68.223291 
L 370.431708 71.421724 
L 370.49471 65.302983 
L 370.557713 69.196727 
L 370.620715 73.785784 
L 370.683717 73.090472 
L 371.06173 54.177998 
L 371.124732 54.87331 
L 371.376741 55.429559 
L 371.439743 56.263933 
L 371.754754 47.503007 
L 371.817757 48.198319 
L 371.880759 48.476443 
L 371.943761 51.953001 
L 372.006763 50.562378 
L 372.19577 49.867066 
L 372.258772 50.145191 
L 372.321774 51.953001 
L 372.636785 44.443636 
L 372.76279 48.059256 
L 372.825792 47.920194 
L 373.140803 51.674876 
L 373.329809 63.077986 
L 373.518816 54.456123 
L 373.581818 59.323303 
L 373.581818 59.323303 
" style="fill:none;stroke:#4c72b0;stroke-linecap:round;stroke-width:0.7;"/>
   </g>
   <g id="patch_3">
    <path d="M 54 252 
L 54 34.56 
" style="fill:none;stroke:#262626;stroke-linecap:square;stroke-linejoin:miter;stroke-width:1.25;"/>
   </g>
   <g id="patch_4">
    <path d="M 54 252 
L 388.8 252 
" style="fill:none;stroke:#262626;stroke-linecap:square;stroke-linejoin:miter;stroke-width:1.25;"/>
   </g>
  </g>
 </g>
 <defs>
  <clipPath id="p3aa1ca9336">
   <rect height="217.44" width="334.8" x="54" y="34.56"/>
  </clipPath>
 </defs>
</svg>
